<svg id="Camada_1" data-name="Camada 1" xmlns="http://www.w3.org/2000/svg" viewBox="0 0 1920 1080"><defs><style>.cls-1{fill:#007fff;}.cls-2{font-size:240px;font-family:Poppins-Regular, Poppins;}.cls-3{fill:none;opacity:0.3;}</style></defs><title>LogoHorizontalAzul</title><path class="cls-1" d="M322.09,596.9,313,612.66H419.13s18.24.06,9.1-15.76L375.16,505l-9.1,15.76,40.33,69.85s3.73,6.31-3.65,6.31Z"/><path class="cls-1" d="M304.63,596.9l-9.1,15.76h-73s-18.37,0-9.25-15.76l98.36-170.37s9.07-15.81,18.2,0L339,442.35l27.43,47.5-9.1,15.77-32.84-56.87s-3.61-6.36-7.29,0l-26.06,45.14-55.83,96.7s-3.63,6.31,3.65,6.31h65.67Z"/><path class="cls-1" d="M320.76,371.42A170.29,170.29,0,1,0,491.05,541.71,170.29,170.29,0,0,0,320.76,371.42Zm0,324.81A154.52,154.52,0,1,1,475.28,541.71,154.52,154.52,0,0,1,320.76,696.23Z"/><text class="cls-2" transform="translate(545.43 615.15) scale(1.02 1)">Asimov Jr</text><rect class="cls-3" width="1920" height="1080"/></svg>